<svg width="337" height="206" viewBox="0 0 337 206" fill="none" xmlns="http://www.w3.org/2000/svg">
<g clip-path="url(#clip0_311_5)">
<mask id="mask0_311_5" style="mask-type:luminance" maskUnits="userSpaceOnUse" x="76" y="41" width="92" height="81">
<path d="M76.0781 41.6667H167.667V121.667H76.0781V41.6667Z" fill="white"/>
</mask>
<g mask="url(#mask0_311_5)">
<path d="M137.359 98.3229V109.37L87.1927 86.1354V77.1719L137.359 53.9375V64.9844L99.4219 81.5469V81.7552L137.359 98.3229ZM167.156 41.6667H83.2552C79.2969 41.6667 76.0834 44.8698 76.0834 48.8177V114.49C76.0834 118.438 79.2969 121.641 83.2552 121.641H143.865L167.156 41.6667Z" fill="#CB6CE6"/>
</g>
<mask id="mask1_311_5" style="mask-type:luminance" maskUnits="userSpaceOnUse" x="166" y="-1" width="93" height="82">
<path d="M166.333 -0.307281H258.078V80.3333H166.333V-0.307281Z" fill="white"/>
</mask>
<g mask="url(#mask1_311_5)">
<path d="M246.984 44.5104L196.818 67.4323V56.3854L235.594 39.8177V39.6094L196.818 23.0469V12L246.984 34.9219V44.5104ZM190.448 -0.270813L167.156 79.7031H250.917C254.88 79.7031 258.089 76.5 258.089 72.5521V6.88023C258.089 2.93231 254.88 -0.270813 250.917 -0.270813H190.448Z" fill="#8C52FF"/>
</g>
<path d="M12.1348 142.713H0.239014V170.713H6.39527V159.375H12.1348C16.8484 159.375 20.489 155.875 20.489 151.161C20.489 146.494 16.8484 142.713 12.1348 142.713ZM11.1557 154.286H6.39527V148.13H11.1557C13.114 148.13 14.6088 149.39 14.6088 151.208C14.6088 153.073 13.114 154.286 11.1557 154.286Z" fill="white"/>
<path d="M42.1499 148.13V142.713H25.3009V170.713H42.1499V165.302H31.4624V159.421H40.6082V154.01H31.4624V148.13H42.1499Z" fill="white"/>
<path d="M48.4581 170.713H57.6977C65.3956 170.713 71.6925 164.458 71.6925 156.713C71.6925 148.968 65.3956 142.713 57.6977 142.713H48.4581V170.713ZM54.6144 165.255V148.177H57.6508C62.0831 148.177 65.5363 151.859 65.5363 156.713C65.5363 161.567 62.0831 165.255 57.6508 165.255H54.6144Z" fill="white"/>
<path d="M92.4211 159.187C95.7336 158.208 98.0669 155.13 98.0669 151.302C98.0669 146.541 94.52 142.713 89.7127 142.713H77.8169V170.713H83.9731V159.885H86.4471L93.3534 170.713H100.26L92.4211 159.187ZM88.7804 154.802H83.9731V148.177H88.7804C90.7388 148.177 92.1867 149.573 92.1867 151.489C92.1867 153.448 90.7388 154.802 88.7804 154.802Z" fill="white"/>
<path d="M117.767 171.088C125.746 171.088 132.136 164.645 132.136 156.713C132.136 148.781 125.746 142.343 117.767 142.343C109.834 142.343 103.392 148.781 103.392 156.713C103.392 164.645 109.834 171.088 117.767 171.088ZM117.767 165.067C113.053 165.067 109.459 161.427 109.459 156.713C109.459 152 113.053 148.364 117.767 148.364C122.527 148.364 126.121 152 126.121 156.713C126.121 161.427 122.527 165.067 117.767 165.067Z" fill="white"/>
<path d="M168.227 148.13V142.713H151.378V170.713H157.539V159.421H166.685V154.01H157.539V148.13H168.227Z" fill="white"/>
<path d="M190.167 148.13V142.713H173.318V170.713H190.167V165.302H179.479V159.421H188.625V154.01H179.479V148.13H190.167Z" fill="white"/>
<path d="M211.079 159.187C214.392 158.208 216.725 155.13 216.725 151.302C216.725 146.541 213.178 142.713 208.371 142.713H196.475V170.713H202.631V159.885H205.105L212.012 170.713H218.918L211.079 159.187ZM207.439 154.802H202.631V148.177H207.439C209.397 148.177 210.845 149.573 210.845 151.489C210.845 153.448 209.397 154.802 207.439 154.802Z" fill="white"/>
<path d="M237.685 159.187C240.998 158.208 243.331 155.13 243.331 151.302C243.331 146.541 239.784 142.713 234.977 142.713H223.081V170.713H229.237V159.885H231.711L238.617 170.713H245.524L237.685 159.187ZM234.044 154.802H229.237V148.177H234.044C236.003 148.177 237.451 149.573 237.451 151.489C237.451 153.448 236.003 154.802 234.044 154.802Z" fill="white"/>
<path d="M266.765 148.13V142.713H249.916V170.713H266.765V165.302H256.077V159.421H265.223V154.01H256.077V148.13H266.765Z" fill="white"/>
<path d="M273.302 170.713H279.464V142.713H273.302V170.713Z" fill="white"/>
<path d="M301.405 159.187C304.717 158.208 307.051 155.13 307.051 151.302C307.051 146.541 303.504 142.713 298.697 142.713H286.801V170.713H292.957V159.885H295.431L302.337 170.713H309.243L301.405 159.187ZM297.764 154.802H292.957V148.177H297.764C299.723 148.177 301.171 149.573 301.171 151.489C301.171 153.448 299.723 154.802 297.764 154.802Z" fill="white"/>
<path d="M330.532 170.713H337.11L327.032 142.713H320.125L310.047 170.713H316.625L318.349 165.442H328.802L330.532 170.713ZM319.985 160.307L323.578 149.203L327.172 160.307H319.985Z" fill="white"/>
<path d="M83.961 193.905L80.8829 203.765L77.961 193.905H76.1641L73.2839 203.744L70.2214 193.905H68.8621L72.6225 205.905H73.9819L77.06 195.265L80.2006 205.905H81.5444L85.2839 193.905H83.961Z" fill="white"/>
<path d="M98.6418 195.145V193.905H92.0845V205.905H98.6418V204.666H93.3605V200.525H97.9595V199.285H93.3605V195.145H98.6418Z" fill="white"/>
<path d="M112.582 199.827C113.64 199.343 114.343 198.384 114.343 197.103C114.343 195.223 112.864 193.905 111.02 193.905H106.66V205.905H111.442C113.265 205.905 114.723 204.603 114.723 202.744C114.723 201.285 113.843 200.244 112.582 199.827ZM113.061 197.207C113.061 198.384 112.082 199.285 110.884 199.285H107.921V195.186H110.884C112.082 195.186 113.061 196.025 113.061 197.207ZM111.28 204.624H107.921V200.525H111.28C112.462 200.525 113.442 201.426 113.442 202.603C113.442 203.785 112.462 204.624 111.28 204.624Z" fill="white"/>
<path d="M132.661 205.905H135.942C139.244 205.905 141.942 203.223 141.942 199.905C141.942 196.588 139.244 193.905 135.942 193.905H132.661V205.905ZM133.921 204.624V195.186H135.921C138.582 195.186 140.661 197.207 140.661 199.905C140.661 202.603 138.582 204.624 135.921 204.624H133.921Z" fill="white"/>
<path d="M156.402 195.145V193.905H149.845V205.905H156.402V204.666H151.121V200.525H155.72V199.285H151.121V195.145H156.402Z" fill="white"/>
<path d="M171.66 193.905L168.025 204.265L164.384 193.905H162.962L167.301 205.905H168.723L173.061 193.905H171.66Z" fill="white"/>
<path d="M186.542 195.145V193.905H179.985V205.905H186.542V204.666H181.261V200.525H185.86V199.285H181.261V195.145H186.542Z" fill="white"/>
<path d="M195.842 204.624V193.905H194.561V205.905H200.3V204.624H195.842Z" fill="white"/>
<path d="M212.983 206.067C216.405 206.067 219.145 203.306 219.145 199.905C219.145 196.504 216.405 193.744 212.983 193.744C209.582 193.744 206.822 196.504 206.822 199.905C206.822 203.306 209.582 206.067 212.983 206.067ZM212.983 204.785C210.28 204.785 208.103 202.624 208.103 199.905C208.103 197.186 210.28 195.025 212.983 195.025C215.702 195.025 217.863 197.186 217.863 199.905C217.863 202.624 215.702 204.785 212.983 204.785Z" fill="white"/>
<path d="M231.263 193.905H226.961V205.905H228.242V200.567H231.263C233.123 200.567 234.602 199.103 234.602 197.244C234.602 195.405 233.123 193.905 231.263 193.905ZM231.143 199.343H228.242V195.145H231.143C232.341 195.145 233.32 195.983 233.32 197.265C233.32 198.588 232.341 199.343 231.143 199.343Z" fill="white"/>
<path d="M248.423 195.145V193.905H241.865V205.905H248.423V204.666H243.141V200.525H247.74V199.285H243.141V195.145H248.423Z" fill="white"/>
<path d="M261.301 200.426C262.884 200.207 264.082 198.884 264.082 197.265C264.082 195.384 262.582 193.905 260.743 193.905H256.441V205.905H257.722V200.483H259.983L263.384 205.905H264.842L261.301 200.426ZM257.722 199.265V195.186H260.665C261.863 195.186 262.801 196.025 262.801 197.223C262.801 198.447 261.884 199.265 260.665 199.265H257.722Z" fill="white"/>
</g>
<defs>
<clipPath id="clip0_311_5">
<rect width="337" height="206" fill="white"/>
</clipPath>
</defs>
</svg>
